# xmcd
#
# Track frame offsets:
#	150
#	22297
#	41503
#	68039
#	89086
#	107329
#	121229
#	134687
#	156482
#	172166
#	189451
#	212595
#	231984
#	251326
#	274592
#
# Disc length: 3892 seconds
#
# Revision: 11
# Processed by: cddbd v1.5.2PL0 Copyright (c) Steve Scherf et al.
# Submitted via: Jack! The Knife 20 Magnifico
#
DISCID=dc0f320f
DTITLE=Bunbury - Palosanto
DYEAR=2013
DGENRE=Rock
TTITLE0=Despierta
TTITLE1=Más Alto Que Nosotros Sólo El Cielo
TTITLE2=Salvavidas
TTITLE3=Los Inmortales
TTITLE4=Prisioneros
TTITLE5=Habrá Una Guerra En Las Calles
TTITLE6=Destrucción Masiva
TTITLE7=El Cambio Y La Celebración
TTITLE8=Hijo De Cortés
TTITLE9=Mar De Dudas
TTITLE10=Miento Cuando Digo Que Lo Siento
TTITLE11=Nostalgias Imperiales
TTITLE12=Plano Secuencia
TTITLE13=Casualidades
TTITLE14=Todo
EXTD=
EXTT0=Enrique Bunbury
EXTT1=Enrique Bunbury
EXTT2=Enrique Bunbury
EXTT3=Enrique Bunbury
EXTT4=Enrique Bunbury
EXTT5=Enrique Bunbury
EXTT6=Enrique Bunbury
EXTT7=Enrique Bunbury
EXTT8=Enrique Bunbury
EXTT9=Enrique Bunbury
EXTT10=Enrique Bunbury
EXTT11=Enrique Bunbury
EXTT12=Enrique Bunbury
EXTT13=Enrique Bunbury
EXTT14=Enrique Bunbury
PLAYORDER=
